<svg xmlns="http://www.w3.org/2000/svg" viewBox="0 0 1440 320"><path fill="#004aad" fill-opacity="1" d="M0,320L24,298.7C48,277,96,235,144,202.7C192,171,240,149,288,160C336,171,384,213,432,240C480,267,528,277,576,256C624,235,672,181,720,138.7C768,96,816,64,864,69.3C912,75,960,117,1008,165.3C1056,213,1104,267,1152,250.7C1200,235,1248,149,1296,128C1344,107,1392,149,1416,170.7L1440,192L1440,320L1416,320C1392,320,1344,320,1296,320C1248,320,1200,320,1152,320C1104,320,1056,320,1008,320C960,320,912,320,864,320C816,320,768,320,720,320C672,320,624,320,576,320C528,320,480,320,432,320C384,320,336,320,288,320C240,320,192,320,144,320C96,320,48,320,24,320L0,320Z"></path></svg>